<svg xmlns="http://www.w3.org/2000/svg" viewBox="0 0 173.26 45.93"><rect width="173.26" height="45.93" style="fill:#4dd0e1"/><path d="M48.43,21.06c-.22,0-.35-.11-.38-.27a2.2,2.2,0,0,0-.77-1.44,2.44,2.44,0,0,0-1.51-.45,1.76,1.76,0,0,0-1.25.4,1.29,1.29,0,0,0-.43,1,1.43,1.43,0,0,0,.07.48.89.89,0,0,0,.3.41,2.45,2.45,0,0,0,.64.38,10,10,0,0,0,1.1.39,11.31,11.31,0,0,1,1.44.52,3.82,3.82,0,0,1,1.06.66,2.67,2.67,0,0,1,.66.92,3.33,3.33,0,0,1,.22,1.28,3.91,3.91,0,0,1-.22,1.33,2.86,2.86,0,0,1-.74,1.09,3.56,3.56,0,0,1-1.27.73,5.89,5.89,0,0,1-1.85.26,10.82,10.82,0,0,1-1.76-.16,6.42,6.42,0,0,1-1.81-.6c0-.42-.06-.86-.09-1.34s0-.94,0-1.4h.31a1.26,1.26,0,0,1,.46.08.34.34,0,0,1,.21.28,2.15,2.15,0,0,0,.79,1.55,3.08,3.08,0,0,0,1.92.54,2.25,2.25,0,0,0,1.37-.39,1.19,1.19,0,0,0,.53-1,1.26,1.26,0,0,0-.47-1,5.14,5.14,0,0,0-1.76-.79,5,5,0,0,1-2.46-1.33,3,3,0,0,1-.71-2,3.11,3.11,0,0,1,1-2.43,3.86,3.86,0,0,1,2.65-.91,7.18,7.18,0,0,1,1.81.23,7.53,7.53,0,0,1,1.41.49c0,.13,0,.3,0,.52s0,.45,0,.69,0,.49,0,.72,0,.43,0,.59Z" style="fill:#fff"/><path d="M53.71,20.26a1.6,1.6,0,0,0-.18-.85c-.12-.18-.45-.3-1-.37-.23-.05-.34-.16-.34-.34v-.21a.54.54,0,0,1,0-.22h.41l.55,0,.59,0a4,4,0,0,0,.54-.07c.36-.05.72-.11,1-.18a4.34,4.34,0,0,1,.7-.11c.14,0,.23,0,.27.1a.48.48,0,0,1,.06.26v1.63A6,6,0,0,1,58,18.38a3.72,3.72,0,0,1,2-.54,4.4,4.4,0,0,1,1.74.35,4.08,4.08,0,0,1,1.4,1,4.77,4.77,0,0,1,.94,1.62A6.66,6.66,0,0,1,64.39,23a5.43,5.43,0,0,1-.51,2.4,6.06,6.06,0,0,1-1.31,1.8,5.73,5.73,0,0,1-1.73,1.13,4.81,4.81,0,0,1-1.8.38,7.31,7.31,0,0,1-1.28-.1,9.35,9.35,0,0,1-1.34-.38v4a1.77,1.77,0,0,0,.06.49.71.71,0,0,0,.28.35,2.25,2.25,0,0,0,.67.25,11.78,11.78,0,0,0,1.25.2.33.33,0,0,1,.31.36,1.1,1.1,0,0,1-.05.43c-.41,0-.94-.06-1.58-.08s-1.26,0-1.87,0-1.06,0-1.6,0l-1.45.08a2.48,2.48,0,0,1,0-.45.26.26,0,0,1,.09-.23.37.37,0,0,1,.18-.08,2.7,2.7,0,0,0,.86-.32.57.57,0,0,0,.19-.5Zm2.71,6.25a3.42,3.42,0,0,0,2.5,1.15,2,2,0,0,0,1.84-1.09,6.2,6.2,0,0,0,.61-3,9.22,9.22,0,0,0-.15-1.71,4.61,4.61,0,0,0-.45-1.4,2.63,2.63,0,0,0-.81-.93,1.94,1.94,0,0,0-1.16-.35,1.55,1.55,0,0,0-.88.28,3,3,0,0,0-.75.71,3.57,3.57,0,0,0-.54,1,3.11,3.11,0,0,0-.21,1.1Z" style="fill:#fff"/><path d="M76.32,26.22a.69.69,0,0,1,.39-.17.5.5,0,0,1,.27.11,1.19,1.19,0,0,1,.32.42,5.91,5.91,0,0,1-2.14,1.62,7.4,7.4,0,0,1-2.87.51,5.77,5.77,0,0,1-1.84-.3,4.69,4.69,0,0,1-1.62-.93,4.75,4.75,0,0,1-1.16-1.6,5.39,5.39,0,0,1-.45-2.3,5.48,5.48,0,0,1,.52-2.39,5.93,5.93,0,0,1,1.31-1.81,5.65,5.65,0,0,1,1.73-1.14,4.89,4.89,0,0,1,5.31.94,5.39,5.39,0,0,1,1.19,3.68.15.15,0,0,1-.17.17l-6.86.28a4.38,4.38,0,0,0,.83,2.87,3.13,3.13,0,0,0,2.52,1,4.6,4.6,0,0,0,1.46-.24A3.66,3.66,0,0,0,76.32,26.22ZM72.23,18.9a1.74,1.74,0,0,0-1.49.8,4.45,4.45,0,0,0-.56,2.53l3.72-.16c.24,0,.36-.12.36-.32a4.2,4.2,0,0,0-.12-1,3.55,3.55,0,0,0-.37-.92,2.38,2.38,0,0,0-.64-.7A1.5,1.5,0,0,0,72.23,18.9Z" style="fill:#fff"/><path d="M81.46,14.36a2,2,0,0,0-.24-1.08,1.55,1.55,0,0,0-1.13-.46.35.35,0,0,1-.31-.38v-.18a.45.45,0,0,1,0-.2h.42l.59,0,.63,0,.57-.05a9.82,9.82,0,0,0,1.15-.2,5.24,5.24,0,0,1,.75-.11c.25,0,.38.11.38.36a8.23,8.23,0,0,1-.07,1,10.88,10.88,0,0,0-.07,1.36v5.44a5.46,5.46,0,0,1,1.39-1.44,3.79,3.79,0,0,1,2.16-.55,4.4,4.4,0,0,1,1.74.35,4,4,0,0,1,1.4,1,4.61,4.61,0,0,1,.94,1.62A6.65,6.65,0,0,1,92.14,23a5.43,5.43,0,0,1-.52,2.4,5.89,5.89,0,0,1-1.31,1.8,5.61,5.61,0,0,1-1.73,1.13,4.81,4.81,0,0,1-1.8.38,8,8,0,0,1-1.69-.19,8.2,8.2,0,0,1-1.88-.67,1.46,1.46,0,0,0-.52.18l-.41.26-.31.23a.45.45,0,0,1-.23.1,1,1,0,0,1-.43-.12A23.43,23.43,0,0,0,81.46,26Zm2.71,12.22a2.94,2.94,0,0,0,1.14.83,3.77,3.77,0,0,0,1.35.25,2,2,0,0,0,1.84-1.07,6,6,0,0,0,.61-3A9.22,9.22,0,0,0,89,21.89a5.23,5.23,0,0,0-.47-1.4,2.56,2.56,0,0,0-.82-.93,2,2,0,0,0-1.17-.35,1.52,1.52,0,0,0-.86.28,2.92,2.92,0,0,0-.74.71,4.14,4.14,0,0,0-.53,1,3.33,3.33,0,0,0-.2,1.1Z" style="fill:#fff"/><path d="M105.36,27.68q.36,0,.36.6a2.32,2.32,0,0,1-.78.33,4.32,4.32,0,0,1-1,.1,2.31,2.31,0,0,1-1.65-.53,2,2,0,0,1-.68-1.22,2.88,2.88,0,0,1-1.28,1.36,4.27,4.27,0,0,1-1.88.39,9.35,9.35,0,0,1-1.12-.08,3.55,3.55,0,0,1-1.13-.35,2.46,2.46,0,0,1-.87-.74A2.09,2.09,0,0,1,95,26.26a2.52,2.52,0,0,1,.45-1.51,4.2,4.2,0,0,1,1.14-1,6.35,6.35,0,0,1,1.5-.67c.55-.17,1.06-.31,1.54-.42l.65-.16.52-.13a.56.56,0,0,0,.34-.2,1.89,1.89,0,0,0,.07-.69,4,4,0,0,0-.36-1.88,1.27,1.27,0,0,0-1.22-.66,1.13,1.13,0,0,0-1,.43,4.87,4.87,0,0,0-.56,1.37.61.61,0,0,1-.42.39c-.23.09-.53.18-.88.28a5.6,5.6,0,0,1-.59.12,3.74,3.74,0,0,1-.54.05.19.19,0,0,1-.19-.11,1.3,1.3,0,0,1,0-.42,1.91,1.91,0,0,1,.44-1.18,4.75,4.75,0,0,1,1.11-1,6.11,6.11,0,0,1,1.48-.7,4.87,4.87,0,0,1,1.55-.27,7.26,7.26,0,0,1,1.61.16,2.89,2.89,0,0,1,1.23.55,2.6,2.6,0,0,1,.81,1.05,4.29,4.29,0,0,1,.28,1.69V25.5c0,.56,0,1,0,1.22a1.72,1.72,0,0,0,.13.58.71.71,0,0,0,.67.43,1.55,1.55,0,0,0,.33,0Zm-4.13-4.49-.53.1a5.56,5.56,0,0,0-1,.28,2.31,2.31,0,0,0-.82.48,2.08,2.08,0,0,0-.56.74,2.65,2.65,0,0,0-.2,1.07,2.16,2.16,0,0,0,.3,1.31,1.08,1.08,0,0,0,.88.37,1.74,1.74,0,0,0,1.43-.67,2.94,2.94,0,0,0,.53-1.88Z" style="fill:#fff"/><path d="M112.9,18.9a1.62,1.62,0,0,0-1.52,1,6.1,6.1,0,0,0-.5,2.68,5.57,5.57,0,0,0,.88,3.5,2.94,2.94,0,0,0,2.46,1.11,5.54,5.54,0,0,0,1.14-.13,4.14,4.14,0,0,0,1.23-.57.93.93,0,0,1,.43-.14.39.39,0,0,1,.32.15,2.75,2.75,0,0,1,.26.5,7.62,7.62,0,0,1-1.88,1.22,7.06,7.06,0,0,1-4.68.19,4.5,4.5,0,0,1-1.66-1,4.64,4.64,0,0,1-1.12-1.62,5.93,5.93,0,0,1-.4-2.29,5.36,5.36,0,0,1,.49-2.32,6.46,6.46,0,0,1,1.26-1.8,5.54,5.54,0,0,1,1.73-1.16,4.79,4.79,0,0,1,1.87-.41,6.34,6.34,0,0,1,2,.27,4.46,4.46,0,0,1,1.33.65,2.78,2.78,0,0,1,.75.85,1.69,1.69,0,0,1,.24.8c0,.13-.11.23-.34.31a4.46,4.46,0,0,1-.78.18,6.2,6.2,0,0,1-.83.07L115,21a.48.48,0,0,1-.35-.14.91.91,0,0,1-.18-.27l-.24-.61a3.4,3.4,0,0,0-.27-.54,1.31,1.31,0,0,0-.42-.39A1.48,1.48,0,0,0,112.9,18.9Z" style="fill:#fff"/><path d="M124.42,26.94a.63.63,0,0,0,.18.49,2.78,2.78,0,0,0,.87.35.37.37,0,0,1,.18.08.26.26,0,0,1,.09.23c0,.09,0,.18,0,.25s0,.14,0,.21l-1.25-.09c-.4,0-.86,0-1.39,0s-1.16,0-1.61,0-.88.05-1.3.09l0-.21a1.93,1.93,0,0,1,0-.25c0-.11,0-.19.08-.23a.48.48,0,0,1,.18-.08,3.81,3.81,0,0,0,1-.3.58.58,0,0,0,.36-.54V14.36a1.85,1.85,0,0,0-.26-1.09,1.45,1.45,0,0,0-1.1-.45.36.36,0,0,1-.32-.38v-.19a.36.36,0,0,1,0-.19h.42l.59,0,.62,0,.58-.05a10.2,10.2,0,0,0,1.15-.2,5.24,5.24,0,0,1,.75-.11c.25,0,.38.11.38.36a4,4,0,0,1-.07.68,7.25,7.25,0,0,0-.07,1.19v8.61l3.5-2.95a.38.38,0,0,0,.19-.31c0-.22-.27-.36-.81-.41-.2,0-.29-.13-.29-.36a1.24,1.24,0,0,1,0-.38c.76.05,1.54.07,2.32.07h1.07l1.12-.06a1.08,1.08,0,0,0,.05.21,1.28,1.28,0,0,1,0,.17.34.34,0,0,1-.34.38,4,4,0,0,0-1,.21,2.65,2.65,0,0,0-.58.32l-2.8,2.45,3.64,5a2.14,2.14,0,0,0,.74.69,2.64,2.64,0,0,0,.82.27.28.28,0,0,1,.27.31c0,.05,0,.12,0,.21a.83.83,0,0,1-.06.25l-1.85,0h-2l-4-5.4h-.12Z" style="fill:#fff"/></svg>